<mxfile host="app.diagrams.net" modified="2024-04-22T14:13:27.238Z" agent="Mozilla/5.0 (Windows NT 10.0; Win64; x64) AppleWebKit/537.36 (KHTML, like Gecko) Chrome/123.0.0.0 Safari/537.36" etag="hTL9Z-ZPWgBvf-Qij9mc" version="24.2.7" type="device">
  <diagram name="Страница — 1" id="hGv-TKfqLrv98jmYEkeF">
    <mxGraphModel dx="1562" dy="845" grid="1" gridSize="10" guides="1" tooltips="1" connect="1" arrows="1" fold="1" page="1" pageScale="1" pageWidth="827" pageHeight="1169" math="0" shadow="0">
      <root>
        <mxCell id="0" />
        <mxCell id="1" parent="0" />
        <mxCell id="V8FQBsTNcE4UToUFiQpj-10" value="" style="edgeStyle=orthogonalEdgeStyle;rounded=0;orthogonalLoop=1;jettySize=auto;html=1;" edge="1" parent="1" source="V8FQBsTNcE4UToUFiQpj-1" target="V8FQBsTNcE4UToUFiQpj-2">
          <mxGeometry relative="1" as="geometry" />
        </mxCell>
        <mxCell id="V8FQBsTNcE4UToUFiQpj-1" value="Начало" style="ellipse;whiteSpace=wrap;html=1;" vertex="1" parent="1">
          <mxGeometry x="320" y="50" width="120" height="60" as="geometry" />
        </mxCell>
        <mxCell id="V8FQBsTNcE4UToUFiQpj-2" value="Объявление переменной N" style="rounded=0;whiteSpace=wrap;html=1;" vertex="1" parent="1">
          <mxGeometry x="320" y="130" width="120" height="60" as="geometry" />
        </mxCell>
        <mxCell id="V8FQBsTNcE4UToUFiQpj-13" value="" style="edgeStyle=orthogonalEdgeStyle;rounded=0;orthogonalLoop=1;jettySize=auto;html=1;" edge="1" parent="1" source="V8FQBsTNcE4UToUFiQpj-3" target="V8FQBsTNcE4UToUFiQpj-4">
          <mxGeometry relative="1" as="geometry" />
        </mxCell>
        <mxCell id="V8FQBsTNcE4UToUFiQpj-3" value="Объявление массива numbers" style="rounded=0;whiteSpace=wrap;html=1;" vertex="1" parent="1">
          <mxGeometry x="320" y="210" width="120" height="60" as="geometry" />
        </mxCell>
        <mxCell id="V8FQBsTNcE4UToUFiQpj-16" value="" style="edgeStyle=orthogonalEdgeStyle;rounded=0;orthogonalLoop=1;jettySize=auto;html=1;" edge="1" parent="1" source="V8FQBsTNcE4UToUFiQpj-4" target="V8FQBsTNcE4UToUFiQpj-6">
          <mxGeometry relative="1" as="geometry" />
        </mxCell>
        <mxCell id="V8FQBsTNcE4UToUFiQpj-4" value="Вызов функункции" style="rounded=0;whiteSpace=wrap;html=1;" vertex="1" parent="1">
          <mxGeometry x="320" y="290" width="120" height="60" as="geometry" />
        </mxCell>
        <mxCell id="V8FQBsTNcE4UToUFiQpj-17" value="" style="edgeStyle=orthogonalEdgeStyle;rounded=0;orthogonalLoop=1;jettySize=auto;html=1;" edge="1" parent="1" source="V8FQBsTNcE4UToUFiQpj-6" target="V8FQBsTNcE4UToUFiQpj-7">
          <mxGeometry relative="1" as="geometry" />
        </mxCell>
        <mxCell id="V8FQBsTNcE4UToUFiQpj-6" value="Объявление массива a" style="rounded=0;whiteSpace=wrap;html=1;" vertex="1" parent="1">
          <mxGeometry x="320" y="370" width="120" height="60" as="geometry" />
        </mxCell>
        <mxCell id="V8FQBsTNcE4UToUFiQpj-7" value="&lt;font style=&quot;font-size: 14px;&quot;&gt;for(Проходим по массиву чисел)&lt;/font&gt;" style="rhombus;whiteSpace=wrap;html=1;" vertex="1" parent="1">
          <mxGeometry x="260" y="450" width="240" height="120" as="geometry" />
        </mxCell>
        <mxCell id="V8FQBsTNcE4UToUFiQpj-18" value="Пока элемент не равен следующему" style="rhombus;whiteSpace=wrap;html=1;" vertex="1" parent="1">
          <mxGeometry x="60" y="570" width="200" height="115" as="geometry" />
        </mxCell>
        <mxCell id="V8FQBsTNcE4UToUFiQpj-19" value="Добавляем в массив a" style="rounded=0;whiteSpace=wrap;html=1;" vertex="1" parent="1">
          <mxGeometry x="310" y="597.5" width="120" height="60" as="geometry" />
        </mxCell>
        <mxCell id="V8FQBsTNcE4UToUFiQpj-20" value="" style="endArrow=classic;html=1;rounded=0;exitX=0;exitY=0.5;exitDx=0;exitDy=0;entryX=0.5;entryY=0;entryDx=0;entryDy=0;" edge="1" parent="1" source="V8FQBsTNcE4UToUFiQpj-7" target="V8FQBsTNcE4UToUFiQpj-18">
          <mxGeometry width="50" height="50" relative="1" as="geometry">
            <mxPoint x="-10" y="320" as="sourcePoint" />
            <mxPoint x="40" y="270" as="targetPoint" />
            <Array as="points">
              <mxPoint x="160" y="510" />
            </Array>
          </mxGeometry>
        </mxCell>
        <mxCell id="V8FQBsTNcE4UToUFiQpj-21" value="Вывод a" style="shape=parallelogram;perimeter=parallelogramPerimeter;whiteSpace=wrap;html=1;fixedSize=1;" vertex="1" parent="1">
          <mxGeometry x="530" y="598" width="120" height="60" as="geometry" />
        </mxCell>
        <mxCell id="V8FQBsTNcE4UToUFiQpj-22" value="" style="endArrow=classic;html=1;rounded=0;exitX=1;exitY=0.5;exitDx=0;exitDy=0;entryX=0;entryY=0.5;entryDx=0;entryDy=0;" edge="1" parent="1" source="V8FQBsTNcE4UToUFiQpj-18" target="V8FQBsTNcE4UToUFiQpj-19">
          <mxGeometry width="50" height="50" relative="1" as="geometry">
            <mxPoint x="320" y="750" as="sourcePoint" />
            <mxPoint x="370" y="700" as="targetPoint" />
          </mxGeometry>
        </mxCell>
        <mxCell id="V8FQBsTNcE4UToUFiQpj-23" value="" style="endArrow=classic;html=1;rounded=0;exitX=1;exitY=0.5;exitDx=0;exitDy=0;entryX=0;entryY=0.5;entryDx=0;entryDy=0;" edge="1" parent="1" source="V8FQBsTNcE4UToUFiQpj-19" target="V8FQBsTNcE4UToUFiQpj-21">
          <mxGeometry width="50" height="50" relative="1" as="geometry">
            <mxPoint x="450" y="770" as="sourcePoint" />
            <mxPoint x="500" y="720" as="targetPoint" />
          </mxGeometry>
        </mxCell>
        <mxCell id="V8FQBsTNcE4UToUFiQpj-24" value="" style="endArrow=classic;html=1;rounded=0;exitX=1;exitY=0.5;exitDx=0;exitDy=0;entryX=0.5;entryY=0;entryDx=0;entryDy=0;" edge="1" parent="1" source="V8FQBsTNcE4UToUFiQpj-7" target="V8FQBsTNcE4UToUFiQpj-21">
          <mxGeometry width="50" height="50" relative="1" as="geometry">
            <mxPoint x="600" y="480" as="sourcePoint" />
            <mxPoint x="650" y="430" as="targetPoint" />
            <Array as="points">
              <mxPoint x="590" y="510" />
            </Array>
          </mxGeometry>
        </mxCell>
        <mxCell id="V8FQBsTNcE4UToUFiQpj-25" value="Да" style="text;html=1;align=center;verticalAlign=middle;resizable=0;points=[];autosize=1;strokeColor=none;fillColor=none;" vertex="1" parent="1">
          <mxGeometry x="170" y="488" width="40" height="30" as="geometry" />
        </mxCell>
        <mxCell id="V8FQBsTNcE4UToUFiQpj-26" value="Нет" style="text;html=1;align=center;verticalAlign=middle;resizable=0;points=[];autosize=1;strokeColor=none;fillColor=none;" vertex="1" parent="1">
          <mxGeometry x="520" y="488" width="40" height="30" as="geometry" />
        </mxCell>
        <mxCell id="V8FQBsTNcE4UToUFiQpj-28" value="Конец" style="ellipse;whiteSpace=wrap;html=1;" vertex="1" parent="1">
          <mxGeometry x="530" y="685" width="120" height="80" as="geometry" />
        </mxCell>
        <mxCell id="V8FQBsTNcE4UToUFiQpj-29" value="" style="endArrow=classic;html=1;rounded=0;exitX=0.5;exitY=1;exitDx=0;exitDy=0;entryX=0.5;entryY=0;entryDx=0;entryDy=0;" edge="1" parent="1" source="V8FQBsTNcE4UToUFiQpj-21" target="V8FQBsTNcE4UToUFiQpj-28">
          <mxGeometry width="50" height="50" relative="1" as="geometry">
            <mxPoint x="650" y="580" as="sourcePoint" />
            <mxPoint x="700" y="530" as="targetPoint" />
          </mxGeometry>
        </mxCell>
      </root>
    </mxGraphModel>
  </diagram>
</mxfile>
